<svg xmlns="http://www.w3.org/2000/svg" width="1200" height="208" viewBox="0 0 1200 208" role="img" aria-labelledby="title description">
  <title id="title">GitHub activity snapshot</title>
  <desc id="description">As of July 16, 2026: 5 public repositories and 198 visible contributions in 2026. Main areas are web, mobile, backend, and AI. Current focus is product systems and AI workflows.</desc>
  <style>
    .bg{fill:#fff;stroke:#dbe3ee}.card{fill:#f8fafc;stroke:#e2e8f0}.ink{fill:#182235}.muted{fill:#66748a}.blue{fill:#2563eb;color:#2563eb}.cyan{fill:#0891b2;color:#0891b2}.green{fill:#16a34a;color:#16a34a}.icon{fill:#eff6ff;stroke:#bfdbfe}.rule{stroke:#dbe3ee}
    @media(prefers-color-scheme:dark){.bg{fill:#111821;stroke:#303b4a}.card{fill:#151e29;stroke:#2b3746}.ink{fill:#edf4fb}.muted{fill:#9aa9bc}.blue{fill:#60a5fa;color:#60a5fa}.cyan{fill:#22d3ee;color:#22d3ee}.green{fill:#4ade80;color:#4ade80}.icon{fill:#152942;stroke:#315f8e}.rule{stroke:#303b4a}}
  </style>
  <rect class="bg" x="1" y="1" width="1198" height="206" rx="18"/>
  <g font-family="Inter,ui-sans-serif,system-ui,-apple-system,'Segoe UI',sans-serif">
    <text class="blue" x="36" y="39" font-size="13" font-weight="750" letter-spacing="2.2">GITHUB / ACTIVITY SNAPSHOT</text>
    <text class="muted" x="1164" y="39" text-anchor="end" font-size="12">verified 16 Jul 2026</text>
    <path class="rule" d="M36 55h1128"/>

    <g transform="translate(36 70)"><rect class="card" width="270" height="105" rx="14"/><circle class="icon" cx="31" cy="31" r="16"/><path class="blue" d="M31 18c-8 0-14 6-14 14 0 6 4 11 9 13 1 0 1-1 1-1v-4c-4 1-5-2-5-2-1-2-2-2-2-2-2-1 0-1 0-1 2 0 3 2 3 2 2 3 5 2 6 1 0-1 1-2 1-3-4 0-8-2-8-7 0-2 1-4 2-5 0-1-1-3 0-5 0 0 2-1 5 2 1 0 3-1 5-1s4 1 5 1c3-3 5-2 5-2 1 2 0 4 0 5 1 1 2 3 2 5 0 5-4 7-8 7 1 1 1 2 1 4v6c0 1 0 1 1 1 5-2 9-7 9-13 0-8-6-14-14-14z"/><text class="muted" x="57" y="27" font-size="11" font-weight="700" letter-spacing="1">PUBLIC REPOSITORIES</text><text class="ink" x="57" y="51" font-size="25" font-weight="760">5</text><text class="muted" x="20" y="88" font-size="11">GitHub public user API</text></g>
    <g transform="translate(322 70)"><rect class="card" width="270" height="105" rx="14"/><circle class="icon" cx="31" cy="31" r="16"/><g class="green" fill="currentColor"><rect x="21" y="34" width="4" height="8" rx="1"/><rect x="28" y="28" width="4" height="14" rx="1"/><rect x="35" y="22" width="4" height="20" rx="1"/></g><text class="muted" x="57" y="27" font-size="11" font-weight="700" letter-spacing="1">CONTRIBUTIONS IN 2026</text><text class="ink" x="57" y="51" font-size="25" font-weight="760">198</text><text class="muted" x="20" y="88" font-size="11">visible profile calendar</text></g>
    <g transform="translate(608 70)"><rect class="card" width="270" height="105" rx="14"/><circle class="icon" cx="31" cy="31" r="16"/><g class="cyan" fill="none" stroke="currentColor" stroke-width="2" stroke-linecap="round"><circle cx="25" cy="27" r="3"/><circle cx="38" cy="24" r="3"/><circle cx="38" cy="38" r="3"/><path d="m28 27 7-2m-8 4 8 7"/></g><text class="muted" x="57" y="27" font-size="11" font-weight="700" letter-spacing="1">MAIN AREAS</text><text class="ink" x="20" y="62" font-size="16" font-weight="700">Web · Mobile · Backend · AI</text><text class="muted" x="20" y="88" font-size="11">profile technology scope</text></g>
    <g transform="translate(894 70)"><rect class="card" width="270" height="105" rx="14"/><circle class="icon" cx="31" cy="31" r="16"/><g class="blue" fill="none" stroke="currentColor" stroke-width="2" stroke-linecap="round"><path d="M31 18v6m0 14v6M18 31h6m14 0h6m-4-9-5 5m-8 8-5 5m18 0-5-5m-8-8-5-5"/><circle cx="31" cy="31" r="5"/></g><text class="muted" x="57" y="27" font-size="11" font-weight="700" letter-spacing="1">CURRENT FOCUS</text><text class="ink" x="20" y="59" font-size="16" font-weight="700">Product systems</text><text class="ink" x="20" y="79" font-size="16" font-weight="700">&amp; AI workflows</text></g>
  </g>
</svg>
